<?xml version="1.0" encoding="UTF-8"?><svg id="a" xmlns="http://www.w3.org/2000/svg" xmlns:xlink="http://www.w3.org/1999/xlink" viewBox="0 0 351.47 170.9"><defs><style>.k,.l,.m,.n,.o,.p,.q,.r{stroke-width:0px;}.k,.s,.t{fill:none;}.u{filter:url(#d);}.v{fill:#fff;filter:url(#b);stroke:#fff;}.v,.s,.t{stroke-miterlimit:10;}.l{fill:#475569;filter:url(#g);}.s{stroke-width:54px;}.s,.t{stroke:#16a34a;}.w{clip-path:url(#i);}.x{clip-path:url(#f);}.t{stroke-width:34px;}.m{fill:#facc15;}.n{fill:#22c55e;}.o{fill:#dc2626;}.p{fill:#6d28d9;}.q{fill:#ea580c;}.r{fill:#0284c7;}</style><filter id="b" filterUnits="userSpaceOnUse"><feOffset dx="4" dy="4"/><feGaussianBlur result="c" stdDeviation="0"/><feFlood flood-color="#15803d" flood-opacity="1"/><feComposite in2="c" operator="in"/><feComposite in="SourceGraphic"/></filter><filter id="d" filterUnits="userSpaceOnUse"><feOffset dx="2" dy="2"/><feGaussianBlur result="e" stdDeviation="0"/><feFlood flood-color="#22774a" flood-opacity="1"/><feComposite in2="e" operator="in"/><feComposite in="SourceGraphic"/></filter><clipPath id="f"><path class="k" d="M148.82,41.26c2.58-2.4,4.5-5.7,4.5-9.72,0-7.62-6-15.36-20.22-15.36-4.5,0-8.94.84-12.36,2.22l-6.96.42c-.78,0-1.38.6-1.38,1.32v.12l2.22,42.72c.9,4.5,12.12,5.4,15.48,5.4,12,0,24.18-5.52,24.18-15.72,0-1.98-.48-4.2-1.5-6.54-.9-2.16-2.28-3.48-3.96-4.86ZM127.88,28c1.08-.24,2.22-.36,3.36-.36,5.16,0,7.32,2.58,7.32,5.34,0,5.16-7.2,5.46-10.14,5.58l-.54-10.56ZM131.78,57.34c-.78,0-1.56-.06-2.4-.18l-.48-9.3c.96-.12,2.04-.18,3.18-.18,4.8,0,7.38,1.62,7.38,4.74s-3.24,4.92-7.68,4.92ZM161.42,74.78l2.46-46.8c.06-.72.66-1.32,1.44-1.32h.12l12.42.6c.78.06,1.38.72,1.38,1.56l-1.74,33.12,13.98.72c.84.06,1.44.78,1.44,1.56l-.72,12.12c-.06.72-.66,1.38-1.44,1.38h-.12l-15.12-.78h-.24l-12.48-.6c-.78-.06-1.38-.72-1.38-1.56ZM244.1,31.06c-3.42-10.5-14.04-14.88-24.18-14.88-3.54,0-7.08.54-10.2,1.56l-9.6.54c-.78,0-1.38.72-1.38,1.5l2.34,43.98c.12,2.28,1.26,3.24,3.24,3.72.42.06.9.12,1.38.24,2.82.48,5.64.72,8.4.72,17.04,0,31.92-9.3,31.92-26.28,0-3.36-.6-7.08-1.92-11.1ZM217.1,54.4c-.48,0-.96,0-1.44-.06l-1.32-24.84c1.38-.36,2.88-.6,4.32-.6,11.1,0,11.16,11.88,11.16,12.9,0,7.62-5.76,12.6-12.72,12.6ZM124.29,76.83c0,1.87-1.94,42.92-2.95,56.31,0,.94-.79,1.66-1.8,1.66l-13.61-.79c-.79,0-1.44-.72-1.87-1.37-1.51-2.38-15.91-29.16-19.01-33.05-.29-.43-.58-.58-.79-.58-.36,0-.5.29-.5.86v.29l3.67,30.67v.07c0,.79-.72,2.23-2.52,2.45l-13.47,1.73h-.22c-1.08,0-1.94-1.15-2.02-2.09l-3.1-55.23v-.14c0-.79.5-2.52,1.94-2.59l14.04-.65h.14c1.08,0,2.52.58,2.88.94,4.32,4.32,13.18,19.01,19.95,30.46.22.43.43.58.65.58.29,0,.43-.43.43-1.01l.86-29.45c0-.86.79-1.66,1.66-1.66h.14l13.83.86c1.15.07,1.66.86,1.66,1.73ZM153.39,84.02c-.41,5.82-5.49,10.22-11.31,9.81-5.89-.42-10.29-5.49-9.88-11.31.42-5.89,5.49-10.29,11.38-9.88,5.82.41,10.22,5.49,9.81,11.38ZM151.31,102.09l-.69,35.18v.14c-.06.72-.75,1.32-1.48,1.34l-14.42-.3h-.14c-.79-.07-1.32-.75-1.34-1.55l.68-35.11c.06-.86.68-1.47,1.55-1.48l14.42.3h.14c.72.06,1.32.75,1.27,1.47ZM203.92,139.73c-.72.58-1.44.79-2.09.79-1.3,0-12.82-3.82-12.82-16.63v-2.45c0-7.56-3.67-10.73-8.93-11.02l-1.37,26.14c0,.72-.65,1.37-1.37,1.37h-.14l-14.4-.72c-.86-.07-1.44-.72-1.44-1.58l1.94-37.44c.07-.79.72-1.44,1.44-1.44h.14l8.06.43c2.81-.58,5.47-.86,8.06-.86,14.62,0,25.71,8.93,25.71,22.68v2.38c0,4.03.94,7.27,3.89,10.01.43.36,1.15,1.08,1.15,1.87,0,.43-.22.86-.72,1.22,0,.14-7.13,5.26-7.13,5.26ZM232.87,101.05c.06.5,2.49,29.08,1.65,39.78-1.02,12.1-9.51,17.3-17.94,18.36-3.72.47-7.46.14-10.55-.78-.83-.26-1.15-1.09-1.23-1.73-.03-.21-.05-.43,0-.58l1.16-6.97c.16-1.04,1.09-1.73,1.87-1.83l.29-.04c.51,0,1.01-.05,1.44-.11,4.29-.54,7.62-2.91,8.04-6.45.75-6.77-.63-25.25-2.09-38.05-.13-1.65.69-2.05,1.54-2.15.07,0,12.21-1.02,13.79-1.15,1.16,0,1.9.7,2.03,1.7ZM292.98,115.82c-2.43-.94-3.59-3.92-4.11-8.21-.57-4.72-.32-11.06-.1-17.68l-.04-.36c-.1-.86-.72-1.73-2.59-1.64l-12.5.42-.36.04c-.86.1-1.48.4-1.84.95-2.93-.88-6.53-1.24-10.11-.81-14.15,1.71-18.74,14.81-17.7,23.39,1.39,11.51,12.79,19.42,24.73,17.98,3.65-.44,7.4-1.76,10.89-4.14,3.98,2.93,9.12,3.47,9.84,3.38.93-.11,1.57-.84,2.06-2.13l3.39-9.19c.11-.3.15-.53.14-.67-.09-.72-.92-1.05-1.68-1.32ZM268.49,116.67c-4.65.56-7.85-2.53-8.33-6.54-.44-3.65,1.54-8.31,6.04-8.85,2.07-.25,4.12.52,5.15,1.84.12,2.16.28,4.1.5,5.96.27,2.22.65,4.2,1.09,6.03-1.56.91-3.1,1.39-4.45,1.55Z"/></clipPath><filter id="g" filterUnits="userSpaceOnUse"><feOffset dx="2" dy="2"/><feGaussianBlur result="h" stdDeviation="0"/><feFlood flood-color="#1e293b" flood-opacity="1"/><feComposite in2="h" operator="in"/><feComposite in="SourceGraphic"/></filter><clipPath id="i"><path class="k" d="M124.63,77.1l-.35-.02c0-.11,0-.2,0-.25,0-.86-.5-1.66-1.66-1.73l-13.83-.86h-.14c-.86,0-1.66.79-1.66,1.66l-.09,3.22h-18.21c-.57-.71-1.11-1.32-1.58-1.79-.1-.1-.28-.21-.51-.33-.54-.66-1.04-1.22-1.49-1.67-.36-.36-1.8-.94-2.88-.94h-.14l-14.04.65c-1.44.07-1.94,1.8-1.94,2.59v.14l3.1,55.23c.07.94.94,2.09,2.02,2.09.12.92.95,2,2,2h.22l13.47-1.73c1.8-.22,2.52-1.66,2.52-2.45v-.07l-3.32-27.72h2.45c5.39,9.13,14.33,25.68,15.5,27.52.38.57.93,1.2,1.61,1.34.17.29.31.52.39.66.43.65,1.08,1.37,1.87,1.37l13.61.79c1.01,0,1.8-.72,1.8-1.66,1.01-13.39,2.95-54.44,2.95-56.31,0-.86-.5-1.66-1.66-1.73ZM106.04,106.05c-.18-.31-.37-.63-.56-.94h.67v.23c0,.28-.04.52-.11.7Z"/></clipPath></defs><path class="v" d="M301.62,118.54c-.22-1.84-1.16-3.31-2.81-4.38-.55-.9-1.35-1.65-2.42-2.26-.2-.65-.4-1.58-.56-2.89-.49-4.08-.3-9.8-.1-15.86l.04-1.44-.09-.74c-.25-2.11-1.36-3.83-3.03-4.89-1.16-1.8-3.24-3.16-6.28-3.16-.15,0-.3,0-.41.01l-12.71.43-.58.07c-.81.1-1.53.28-2.15.53-1.98-.4-4.06-.61-6.14-.61-1.12,0-2.23.06-3.32.18l1.67-8.31c.44-2.19,0-4.42-1.24-6.27-1.24-1.86-3.12-3.13-5.31-3.56l-10.09-2.03h-.01c4.43-5.16,6.94-11.72,6.94-19.2,0-4.01-.73-8.27-2.17-12.64-1.35-4.14-3.67-7.72-6.91-10.64-5.44-6.17-14.17-9.7-24.02-9.7-3.83,0-7.66.56-11.11,1.61l-7.66.43c-.23-.45-.5-.88-.81-1.29l-6.27-8.17c-1.6-2.07-4.01-3.26-6.63-3.26-1.83,0-3.64.61-5.09,1.73l-8.16,6.27c-3.65,2.8-4.34,8.06-1.54,11.71l1.44,1.87-8.53-.42h-.24c-3.09,0-5.65,2.12-6.29,5.04-1.1-2.86-2.89-5.44-5.33-7.55-3.22-3.72-9.36-7.97-20.6-7.97-4.73,0-9.46.81-13.44,2.28l-6.09.37c-3.42.1-6.17,2.9-6.17,6.31v.25l.12,2.38c-.45-.67-.95-1.31-1.51-1.91-2.7-3.17-9.62-10.22-17.93-10.22-1.06,0-2.1.12-3.12.34-4.22.94-7.07,4.18-11.78,9.55-3.51,3.99-7.12,9.94-13.69,20.75-.85,1.4-2.44,4.02-3.13,7.85-.32,1.8-1.17,6.59,1.23,11.38,2.64,5.26,8.15,8.3,10.63,9.45l.06.05-.48.03c-4.19.21-6.69,4.02-6.69,7.58v.29l.05.98c-3.19-1.86-6.46-3.69-9.91-5.53-.73-.39-1.54-.59-2.35-.59-.6,0-1.2.11-1.78.33-1.35.51-2.41,1.58-2.91,2.94l-3.13,8.44c-.25.67-.35,1.37-.3,2.06-.32.03-.63.06-.95.09-1.43.14-2.73.89-3.57,2.06-.84,1.17-1.13,2.64-.81,4.04l2.02,8.77c.32,1.4,1.23,2.59,2.49,3.27.74.4,1.56.6,2.38.6.58,0,1.16-.1,1.71-.3,2.34-.85,5.02-1.73,8.16-2.67,3.07-.9,6.51-1.85,10.1-2.59l1.88,33.57c.16,2.09,1.37,4.29,3.3,5.58,1.22,1.78,3.23,3.12,5.7,3.12h.54l13.74-1.76c4.5-.54,6.92-4.22,6.92-7.49v-.29l-1.04-8.76c.64,1.16,1.26,2.28,1.84,3.32,2.74,4.96,4.09,7.38,4.62,8.22l.06.09c.72,1.08,1.5,1.84,2.25,2.37,1.94,2.65,4.23,3.17,5.57,3.22l13.67.8h.15c3.42,0,6.26-2.49,6.73-5.72l-.02.72v.2c.05,2.32,1.24,4.33,3.04,5.46,1.06,1.68,2.85,2.82,4.94,2.97l.27.02,14.67.3h.12c3.31-.1,6.08-2.72,6.31-5.99l.02-.24c.48.66,1.08,1.23,1.77,1.67,1.07,1.67,2.87,2.83,5,3l10.71.54c-.19,1.08-.18,2.21.08,3.35l2.31,10.03c.88,3.82,4.22,6.48,8.14,6.48.63,0,1.26-.07,1.87-.21l10.04-2.31c1.29-.3,2.44-.89,3.4-1.68.53.82,1.21,1.52,2.02,2.04.85,1.31,2.11,2.29,3.65,2.77,2.64.79,5.61,1.2,8.58,1.2,1.35,0,2.7-.08,4.02-.25,9.8-1.23,16.95-6.48,20.3-14.52,1.15.59,2.45.94,3.84.94h10.29c4.61,0,8.35-3.75,8.35-8.36v-7.69c1.81.35,3.66.54,5.55.54,1.13,0,2.28-.07,3.41-.2,3.55-.43,7.06-1.55,10.29-3.27,4.07,2.04,8.15,2.55,9.65,2.55.33,0,.59-.02.78-.05,1.61-.19,4.53-1.14,6.16-5.37l3.4-9.22c.24-.68.55-1.72.39-2.96Z"/><path class="o" d="M59.08,90.84c1.64.07,3.31.13,4.98.24-3.35-1.04-6.74-1.98-10.14-2.87-2.71-.7-5.46-1.38-8.15-1.99,0,0,3.13-8.44,3.13-8.44,5.12,2.73,10.06,5.54,14.98,8.57,2.44,1.51,4.86,3.07,7.2,4.75.53.4,1.07.81,1.62,1.21,1.6.41,3.15.96,4.63,1.68-1.02-.25-2.04-.38-3.07-.45,1.2,1,2.3,2.1,3.07,3.45-1.69-1.71-3.96-2.59-6.17-3.46-.94.05-1.87.13-2.8.23-5.95.68-11.79,2.16-17.54,3.84-2.86.85-5.76,1.78-8.47,2.77,0,0-2.02-8.77-2.02-8.77,6.32-.63,12.45-.89,18.75-.77Z"/><g class="u"><path class="n" d="M112.4,20.26v-.12c0-.72.6-1.32,1.38-1.32l6.96-.42c3.42-1.38,7.86-2.22,12.36-2.22,14.22,0,20.22,7.74,20.22,15.36,0,4.02-1.92,7.32-4.5,9.72,1.68,1.38,3.06,2.7,3.96,4.86,1.02,2.34,1.5,4.56,1.5,6.54,0,10.2-12.18,15.72-24.18,15.72-3.36,0-14.58-.9-15.48-5.4l-2.22-42.72ZM128.42,38.56c2.94-.12,10.14-.42,10.14-5.58,0-2.76-2.16-5.34-7.32-5.34-1.14,0-2.28.12-3.36.36l.54,10.56ZM129.38,57.16c.84.12,1.62.18,2.4.18,4.44,0,7.68-1.92,7.68-4.92s-2.58-4.74-7.38-4.74c-1.14,0-2.22.06-3.18.18l.48,9.3Z"/><path class="n" d="M190.64,77.72l-15.12-.78h-.24l-12.48-.6c-.78-.06-1.38-.72-1.38-1.56l2.46-46.8c.06-.72.66-1.32,1.44-1.32h.12l12.42.6c.78.06,1.38.72,1.38,1.56l-1.74,33.12,13.98.72c.84.06,1.44.78,1.44,1.56l-.72,12.12c-.06.72-.66,1.38-1.44,1.38h-.12Z"/><path class="n" d="M198.74,19.78c0-.78.6-1.5,1.38-1.5l9.6-.54c3.12-1.02,6.66-1.56,10.2-1.56,10.14,0,20.76,4.38,24.18,14.88,1.32,4.02,1.92,7.74,1.92,11.1,0,16.98-14.88,26.28-31.92,26.28-2.76,0-5.58-.24-8.4-.72-.48-.12-.96-.18-1.38-.24-1.98-.48-3.12-1.44-3.24-3.72l-2.34-43.98ZM215.66,54.34c.48.06.96.06,1.44.06,6.96,0,12.72-4.98,12.72-12.6,0-1.02-.06-12.9-11.16-12.9-1.44,0-2.94.24-4.32.6l1.32,24.84Z"/><path class="n" d="M105.93,134c-.79,0-1.44-.72-1.87-1.37-1.51-2.38-15.91-29.16-19.01-33.05-.29-.43-.58-.58-.79-.58-.36,0-.5.29-.5.86v.29l3.67,30.67v.07c0,.79-.72,2.23-2.52,2.45l-13.47,1.73h-.22c-1.08,0-1.94-1.15-2.02-2.09l-3.1-55.23v-.14c0-.79.5-2.52,1.94-2.59l14.04-.65h.14c1.08,0,2.52.58,2.88.94,4.32,4.32,13.18,19.01,19.95,30.46.22.43.43.58.65.58.29,0,.43-.43.43-1.01l.86-29.45c0-.86.79-1.66,1.66-1.66h.14l13.83.86c1.15.07,1.66.86,1.66,1.73,0,1.87-1.94,42.92-2.95,56.31,0,.94-.79,1.66-1.8,1.66l-13.61-.79Z"/><path class="n" d="M142.09,93.83c-5.89-.42-10.29-5.49-9.88-11.31s5.49-10.29,11.38-9.88,10.22,5.49,9.81,11.38-5.49,10.22-11.31,9.81Z"/><path class="n" d="M134.73,138.45h-.14c-.79-.07-1.32-.75-1.34-1.55l.68-35.11c.06-.86.68-1.47,1.55-1.48l14.42.3h.14c.72.06,1.32.75,1.27,1.47l-.69,35.18v.14c-.06.72-.75,1.32-1.48,1.34l-14.42-.3Z"/><path class="n" d="M206.73,121.37c0,4.03.94,7.27,3.89,10.01.43.36,1.15,1.08,1.15,1.87,0,.43-.22.86-.72,1.22,0,.14-7.13,5.26-7.13,5.26-.72.58-1.44.79-2.09.79-1.3,0-12.82-3.82-12.82-16.63v-2.45c0-7.56-3.67-10.73-8.93-11.02l-1.37,26.14c0,.72-.65,1.37-1.37,1.37h-.14l-14.4-.72c-.86-.07-1.44-.72-1.44-1.58l1.94-37.44c.07-.79.72-1.44,1.44-1.44h.14l8.06.43c2.81-.58,5.47-.86,8.06-.86,14.62,0,25.71,8.93,25.71,22.68v2.38Z"/><path class="n" d="M205.96,149.13c.16-1.04,1.09-1.73,1.87-1.83l.29-.04c.51,0,1.01-.05,1.44-.11,4.29-.54,7.62-2.91,8.04-6.45.75-6.77-.63-25.25-2.09-38.05-.13-1.65.69-2.05,1.54-2.15.07,0,12.21-1.02,13.79-1.15,1.16,0,1.9.7,2.03,1.7.06.5,2.49,29.08,1.65,39.78-1.02,12.1-9.51,17.3-17.94,18.36-3.72.47-7.46.14-10.55-.78-.83-.26-1.15-1.09-1.23-1.73-.03-.21-.05-.43,0-.58l1.16-6.97Z"/><path class="n" d="M221.96,93.76c-5.9,0-10.66-4.75-10.66-10.58s4.75-10.66,10.66-10.66,10.58,4.75,10.58,10.66-4.75,10.58-10.58,10.58Z"/><path class="n" d="M291.14,127c-.5,1.29-1.13,2.02-2.06,2.13-.71.09-5.86-.45-9.84-3.38-3.48,2.38-7.24,3.7-10.89,4.14-11.94,1.44-23.34-6.47-24.73-17.98-1.04-8.58,3.55-21.68,17.7-23.39,3.57-.43,7.17-.07,10.11.81.37-.55.99-.84,1.84-.95l.36-.04,12.5-.42c1.88-.08,2.49.79,2.59,1.64l.04.36c-.22,6.63-.47,12.97.1,17.68.52,4.29,1.68,7.27,4.11,8.21.76.27,1.6.61,1.68,1.32.02.14-.03.37-.14.67l-3.39,9.19ZM271.86,109.09c-.22-1.86-.39-3.8-.5-5.96-1.03-1.33-3.08-2.09-5.15-1.84-4.5.54-6.48,5.21-6.04,8.85.48,4,3.69,7.1,8.33,6.54,1.36-.16,2.9-.64,4.45-1.55-.44-1.83-.82-3.82-1.09-6.03Z"/></g><g class="x"><path class="t" d="M63.98,38.11c40.3,13.41,39,16,67,14,10.58-.76,29.48,7.64,40,9,31,4,19.64,5.72,30,6,37,1,77-44,77-44"/><path class="s" d="M26.98,78.11s2.78,72.07,90,63c15.55-1.62,45.94-8.35,57-9,19.25-1.12,15.69,4.98,30,8,7.72,1.63,15.29,2.52,22.83,2.49,8.06-.03,16.07-1.12,24.17-3.49,58-17,66-43.91,79-61"/></g><path class="l" d="M63.76,43.87c6.64-10.92,10.02-16.45,13.17-20.04,4.32-4.92,6.54-7.4,9.12-7.97,7.61-1.69,15,6.87,16.23,8.34.52.54,1.21,1.37,1.75,2.51,1.42,2.99,1.16,6.66-.23,9.35-1.96,3.8-6.94,7.15-11.45,7.99-.95.18-2.56.37-3.31,1.58-.76,1.23-.26,2.93.29,4.19.19.55,2.21,6.68-1.72,12.06-2.27,3.11-6.04,5.32-9.67,5.28-2.77-.03-6.84-1.39-6.84-1.39h0s-6.58-2.58-9.04-7.49c-1.66-3.31-1.03-6.84-.77-8.26.51-2.85,1.69-4.83,2.48-6.13Z"/><rect class="r" x="239.98" y="69.11" width="17" height="17" rx="3.35" ry="3.35" transform="translate(20.11 -47.34) rotate(11.34)"/><rect class="m" x="180.99" y="141.57" width="17" height="17" rx="3.35" ry="3.35" transform="translate(-28.81 46.28) rotate(-12.95)"/><rect class="q" x="177.99" y="7.57" width="17" height="17" rx="3.35" ry="3.35" transform="translate(28.8 116.93) rotate(-37.53)"/><rect class="o" x="239.99" y="130.57" width="17" height="17" rx="3.35" ry="3.35" transform="translate(387.56 -109.43) rotate(90)"/><rect class="p" x="90.98" y="59.11" width="17" height="17" rx="3.35" ry="3.35" transform="translate(215.79 36.97) rotate(131.04)"/><path class="o" d="M59.08,90.84c1.64.07,3.31.13,4.98.24-3.35-1.04-6.74-1.98-10.14-2.87-2.71-.7-5.46-1.38-8.15-1.99,0,0,3.13-8.44,3.13-8.44,5.12,2.73,10.06,5.54,14.98,8.57,2.44,1.51,4.86,3.07,7.2,4.75.53.4,1.07.81,1.62,1.21,1.6.41,3.15.96,4.63,1.68-1.02-.25-2.04-.38-3.07-.45,1.2,1,2.3,2.1,3.07,3.45-1.69-1.71-3.96-2.59-6.17-3.46-.94.05-1.87.13-2.8.23-5.95.68-11.79,2.16-17.54,3.84-2.86.85-5.76,1.78-8.47,2.77,0,0-2.02-8.77-2.02-8.77,6.32-.63,12.45-.89,18.75-.77Z"/><g class="w"><path class="o" d="M67.37,98.91c8.87.72,18.38-.69,27.08-2.28,5.28-.97,10.45-2.71,15.83-3,4.08-.22,8.14.28,12.2.61,8.98.74,8.93-13.27,0-14-4.06-.33-8.12-.83-12.2-.61-5.51.3-10.81,1.65-16.17,2.82-8.52,1.87-17.98,3.18-26.74,2.46s-8.93,13.27,0,14h0Z"/></g></svg>